<?xml version="1.0" encoding="utf-8"?>
<!-- Generator: Adobe Illustrator 19.2.1, SVG Export Plug-In . SVG Version: 6.00 Build 0)  -->
<svg version="1.1" xmlns="http://www.w3.org/2000/svg" xmlns:xlink="http://www.w3.org/1999/xlink" x="0px" y="0px"
	 viewBox="0 0 450 400" style="enable-background:new 0 0 450 400;" xml:space="preserve">
<style type="text/css">
	.st0{display:none;}
	.st1{display:inline;}
	.st2{fill:#FFFFFF;}
</style>
<g id="Layer_2" class="st0">
	<rect class="st1" width="450" height="400"/>
</g>
<g id="Layer_2_copy">
</g>
<g id="Layer_1">
	<g>
		<path class="st2" d="M231.8,63.7c0.6,0.4,0.9,0.7,1,0.6C232.7,64.3,232.4,64.1,231.8,63.7z"/>
		<path class="st2" d="M0,0v400h450V0H0z M424.4,281.5c-1.3,3.9-4.3,6-5.1,6.5c-1.4,0.9-2.2,1.1-4,1.8c-4.4,1.8-9.6,3.9-10.2,6.9
			c-0.6,3.3,5.5,4.4,5.8,9.8c0.3,4.6-2.5,8.2-2.9,8.7c-2.8,3.5-5.9,3.5-6.2,5.8c-0.3,2.3,2.8,3,3.6,6.5c0.7,3.3-1,6.3-1.8,7.6
			c-2.9,5-6.3,4.1-8.7,7.6c-4,5.8,3.1,12.3-1.1,18.6c-3.4,5.1-8.8,6.7-12,7.6c-3.2,0.9-7.9,1.7-22.9-1.1
			c-18.2-3.4-17.6-4.1-18.6-4.4c-22.8-7.2-72.1-58.3-85-72.5c4.3,5.3,13.7,17.2,31.8,40.3c3.1,2.1,6.4,4.9,6.3,8.3
			c-0.2,6.7-14.9,8.4-38.3,18.5c-38.4,16.6-47,18.1-51.3,14.2c-7.7-7,5.7-24.3-3.3-33.8c-8.4-8.9-33-8.2-37.1-14.2
			c-2.8-4.2-1.9-6.7-3.2-10.6c-0.8-2.2-1.7-3.8-2.3-4.7c-6.1-9.3-16.4-8.2-22.9-17.5c0,0,0,0-0.4-0.7c-0.2-0.4-1.6-2.8-2-3.5
			c-6.7-11.8-10.9-19.1-9.4-20.4c0.8-0.8,2.8,0.7,14,6.7c5.3,2.8,7.9,4.2,8,4c0.3-0.4-16.5-10-35.3-24.2c-9.1-6.9-17-13.3-20.9-16.6
			c-3.2-2.7-4.5-3.9-6.1-5.1c0,0-1.7-1.2-3.5-2.3c-8.1-4.9-38.9-6.9-41.5-15.3c-1.5-4.9,7.3-9.1,5.5-14.2
			c-2.1-5.7-13.8-2.4-17.5-8.7c-3.8-6.6,3.2-20.5,13.1-27.3c6-4.1,9.9-3.4,10.9-6.5c2.5-8-20.8-20.5-18.6-25.1
			c1.3-2.7,9.3,1.3,15.3-3.3c5.3-4.1,1.8-9.3,6.5-14.2c6.8-6.9,19.8-2.3,28.4-8.7c3-2.3,4.6-3.9,4.6-3.9c3.6-3.7,4.3-6.2,9.6-9.2
			c12.9-7.2,22.3-0.3,29.5-7.6c3.5-3.6,2.4-6.5,4.1-11.3v0c0,0,0.7-2.6,2.5-5.1c8.4-12,19.6-14.2,19.6-14.2
			c7.8-1.5,7.7,2.6,17.5,2.2c11.3-0.4,12.9-6,25.1-6.5c4.3-0.2,7.5,0.2,11,0.8c8.2,1.5,15.2,5,20.1,8c-4.1-3.3-8.5-8.1-9.9-14.3
			c-0.2-0.8-0.7-8,2.8-14.2c3.4-6,15.6-5.1,19.6-4.9c47,2.2,85.7,26.2,85.7,26.2c27.9,17.3,53.6,33.2,59.5,62.8
			c2.5,12.6,0.6,23.8-1.5,31.3c25.2,46.2,25.6,66.7,20.7,76.8c-1.2,2.5-5.1,9.1-3.6,17.1c1.6,8.8,9,15.8,13.1,19.6
			c6.2,5.9,11,7.9,12.7,14.2C424.8,275.1,425.5,278.1,424.4,281.5z"/>
	</g>
</g>
</svg>
