<?xml version="1.0" encoding="utf-8"?>
<!-- Generator: Adobe Illustrator 19.2.1, SVG Export Plug-In . SVG Version: 6.00 Build 0)  -->
<svg version="1.1" xmlns="http://www.w3.org/2000/svg" xmlns:xlink="http://www.w3.org/1999/xlink" x="0px" y="0px"
	 viewBox="0 0 400 200" style="enable-background:new 0 0 400 200;" xml:space="preserve">
<style type="text/css">
	.st0{display:none;}
	.st1{display:inline;fill:#231F20;}
	.st2{fill:#FFFFFF;}
</style>
<g id="Layer_2" class="st0">
	<rect x="-600" y="-350" class="st1" width="1600" height="900"/>
</g>
<g id="Layer_1">
	<g>
		<path class="st2" d="M247,154h2c0.9,0,2,0.1,2,1.7V168h3v-12.8c0,0,0.1-2.5-1.2-3.2c1.4-0.3,1.2-3,1.2-3v-10.4
			c0-2.4-1.7-4.6-4-4.6h-6v34h3V154z M247,138h2c0.9,0,2,0.1,2,1.4v9c0,1.5-1.1,1.6-2,1.6h-2V138z"/>
		<path class="st2" d="M284,150.7l1.9,8.7c0.2,0.7,0.5,2.6,2.5,2.6h1.1l2.5-11.3V168h3v-34h-1.6c-1.2,0-1.5,1.3-1.5,1.4l-3.8,19.4
			l-4-19.5c0,0-0.2-1.4-1.5-1.4H280v34h4V150.7z"/>
		<path class="st2" d="M267.5,168h2.5v-32.2c0-0.6-0.4-1.8-1.4-1.8H267v33.3C267,167.5,266.7,168,267.5,168z"/>
		<path class="st2" d="M204.4,168h2.6v-15h1.9c3.3,0,5.1-2.4,5.1-5.7v-8.7c0-2.4-2.2-4.6-4.5-4.6H203v33.3
			C203,167.5,203.6,168,204.4,168z M207,138h1.7c1,0,1.3,0.4,2.3,1.3v8.8c-1,0.9-1.3,1.9-2.3,1.9H207V138z"/>
		<path class="st2" d="M233.1,167.3c0.1-0.3,0.7-2.3,1.1-2.3H227v-12.1c0-0.4,0.4-0.9,0.8-0.9h1.4c1.1,0,1.6-0.3,1.8-0.7
			c0.1-0.3,0.7-1.3,1.1-2.3H227v-10.3c0-0.5,0.4-0.7,0.8-0.7h2.8c1.1,0,1.6-0.8,1.8-1.2l1.2-2.8h-9c-0.6,0-0.6,0.8-0.6,1.4V168h7.3
			C232.4,168,232.9,167.7,233.1,167.3z"/>
		<path class="st2" d="M201.1,96.2c7.4-10.1,14-20.9,19.5-32.1c5-10.1,9.2-20.7,12.5-31.5c-15.8,0-48.2,0-63.9,0
			c3.4,10.8,7.5,21.3,12.5,31.4C187.3,75.3,193.8,86,201.1,96.2z"/>
		<path class="st2" d="M372.6,155.1c0,0,1.4,2.6,1.4,4.6v3.8c0,1.1-0.5,1.9-1.5,1.9c-1,0-1.5-0.8-1.5-1.8v-5.9c-1,0.4-2.5,1-2.8,1.1
			c-0.4,0.2-1.2,0.8-1.2,1.9v3.5c0,2.3,2,3.9,4.3,3.9h2.2c2.4,0,4.6-1.6,4.6-3.9v-4.3c0,0,0-2.3-1.7-5.3l-4-7.8c0,0-1.3-2.5-1.3-4.5
			V139c0-1.1,0.5-1.9,1.5-1.9c1,0,1.5,0.8,1.5,1.9v3.9c1-0.4,2.5-1,2.8-1.2c0.4-0.2,1.2-0.8,1.2-1.9v-1.3c0-2.3-2.1-4.5-4.4-4.5
			h-2.2c-2.4,0-4.4,2.2-4.4,4.5v3.5c0,0-0.2,2.3,1.5,5.3L372.6,155.1z"/>
		<path class="st2" d="M183.1,168l3.5-12.2l3.1,12.2h3.7l-5-18l4.3-16H190c-0.1,0-1,0.2-1.3,1.4l-2.3,9l-2.4-9.1
			c-0.3-1.2-1.2-1.3-1.3-1.3h-2.7l4.5,16l-5.3,18H183.1z"/>
		<path class="st2" d="M330,149.3l3.5,16.6c0.1,0.7,0.2,2.1,2.1,2.1h1.4v-34h-3v19.8l-3.7-17.7c-0.2-1-0.7-2.1-2.6-2.1H326v34h4
			V149.3z"/>
		<path class="st2" d="M315.7,167.3c0.1-0.3,0.7-2.3,1.1-2.3H310v-12.1c0-0.4,0-0.9,0.4-0.9h1.4c1.1,0,1.6-0.3,1.8-0.7
			c0.1-0.3,0.7-1.3,1.1-2.3H310v-10.3c0-0.5-0.1-0.7,0.4-0.7h2.8c1.1,0,1.6-0.8,1.8-1.2l1.2-2.8h-9c-0.6,0-1.2,0.8-1.2,1.4V168h7.8
			C314.9,168,315.4,167.7,315.7,167.3z"/>
		<path class="st2" d="M350,167.3c0,0.2,0.2,0.7,1,0.7h2v-29.4c1-0.4,0.8-0.6,1.3-0.6h2.7c1.1,0,1.6-0.8,1.8-1.2l1.2-2.8h-13.7
			c-0.6,0-1.3,0.9-1.3,1.5v2.5h5V167.3z"/>
		<path class="st2" d="M170.3,167.3c0.1-0.3,0.7-2.3,1.1-2.3H164v-12.1c0-0.4,0.6-0.9,1-0.9h1.4c1.1,0,1.6-0.3,1.8-0.7
			c0.1-0.3,0.7-1.3,1.1-2.3H164v-10.3c0-0.5,0.5-0.7,1-0.7h2.8c1.1,0,1.6-0.8,1.8-1.2l1.2-2.8h-9c-0.6,0-0.8,0.8-0.8,1.4V168h7.4
			C169.5,168,170.1,167.7,170.3,167.3z"/>
		<path class="st2" d="M93,167.3c0,0.2,0.6,0.7,1.5,0.7H97v-29.4c0-0.4,0.3-0.6,0.8-0.6h2.7c1.1,0,1.6-0.8,1.8-1.2l1.2-2.8H89.7
			c-0.6,0-0.7,0.9-0.7,1.5v2.5h4V167.3z"/>
		<path class="st2" d="M54.4,144.9l3,23.1h3.8l-4.8-32c-0.1-0.9-0.4-2-1.8-2h-1.9l-5.1,34h3.8L54.4,144.9z"/>
		<path class="st2" d="M-600-350v900h1600v-900H-600z M43,112.6c14.2-9.7,32.2-21.3,59.2-52.5c5.9-6.7,8.1-10.8,14.6-16.7
			c7-6.3,13.4-11.9,23-13.5c2.9-0.5,10.7-1.7,18,1c0.6,0.2,1.2,0.4,1.8,0.6c-0.2-0.8-0.5-1.5-0.7-2.3c-0.4-1.4-0.1-2.6,0.7-3.7
			c0.9-1.1,2.2-1.6,3.6-1.6h0c12.5,0,62.9,0,75.9,0h0c1.4,0,2.7,0.4,3.6,1.6c0.9,1.1,1.1,2.5,0.8,3.8c-0.2,0.8-0.5,1.5-0.7,2.3
			c0.6-0.2,1.2-0.4,1.9-0.6c7.3-2.7,15.1-1.5,18-1c9.6,1.6,16,7.2,23,13.5c6.5,5.8,8.7,9.9,14.6,16.6c27.1,31.1,45,42.7,59.2,52.5
			c2,1.3,1.4,4.7-1.3,4.7c-1.5,0-3.5-0.4-5.9-1c-11.7-3.2-32.3-13.4-49.8-24.7c-10.5-6.8-28.9-19.4-46-40.2c-2.8-3.3-6-7-5.3-7.8
			c1.3-1.5,15.9,9,22.7,13.9c10.4,7.5,19.4,14,27.2,19.5C283,56.6,274.3,36.6,258.4,36c-5.9-0.2-10.5,2-10.5,2
			c-5.3,2.6-8.8,7.2-11.1,11.3c-2.4,6.4-5.2,12.6-8.2,18.7c-6.7,13.6-14.8,26.4-24.1,38.3c-0.9,1.1-2.2,1.7-3.5,1.7h0
			c-1.4,0-2.7-0.6-3.6-1.7c-9.2-12-17.2-24.8-23.8-38.3c-3-6.1-5.8-12.4-8.2-18.8c-2.3-4-5.7-8.6-11-11.1c0,0-4.6-2.2-10.5-2
			c-15.8,0.6-24.6,20.6-42.7,40.9c7.8-5.6,16.7-12,27.2-19.5c6.8-4.9,21.4-15.4,22.7-13.9c0.7,0.8-2.6,4.5-5.3,7.8
			c-17.1,20.8-35.5,33.3-46,40.2c-17.4,11.3-38.1,21.5-49.8,24.7c-2.4,0.7-4.4,1-5.9,1C41.6,117.3,41,114,43,112.6z M386,176H14v-50
			h372V176z"/>
		<path class="st2" d="M26,150.7l2.2,8.7c0.2,0.7,0.8,2.6,2.8,2.6h1.1l2.9-11.3V168h3v-34h-2c-1.2,0-1.5,1.3-1.5,1.4l-3.8,19.4
			l-4-19.5c0,0-0.2-1.4-1.5-1.4H23v34h3V150.7z"/>
		<path class="st2" d="M73,154h2c0.9,0,2,0.1,2,1.7V168h3v-12.8c0,0,0.1-2.5-1.2-3.2c1.4-0.3,1.2-3,1.2-3v-10.4c0-2.4-1.7-4.6-4-4.6
			h-6v34h3V154z M73,138h2c0.9,0,2,0.1,2,1.4v9c0,1.5-1.1,1.6-2,1.6h-2V138z"/>
		<path class="st2" d="M131,149.3l3.5,16.6c0.1,0.7,0.2,2.1,2.1,2.1h1.4v-34h-3v19.8l-3.7-17.7c-0.2-1-0.7-2.1-2.6-2.1H127v34h4
			V149.3z"/>
		<path class="st2" d="M112.7,168h2.3v-32.2c0-0.6-0.2-1.8-1.2-1.8H112v33.3C112,167.5,111.9,168,112.7,168z"/>
	</g>
</g>
</svg>
